<svg width="96" height="96" viewBox="0 0 480 578" fill="none" xmlns="http://www.w3.org/2000/svg">
<g filter="url(#filter0_d_1_2844)">
<mask id="path-1-outside-1_1_2844" maskUnits="userSpaceOnUse" x="7" y="75" width="256" height="261" fill="black">
<rect fill="white" x="7" y="75" width="256" height="261"/>
<path d="M257.16 251.93C248.36 251.93 242.75 253.69 240.33 257.21C237.91 260.73 236.7 266.78 236.7 275.36C236.7 312.32 207 330.8 147.6 330.8C131.54 330.8 119.77 329.81 112.29 327.83C104.81 325.85 97.88 322.55 91.5 317.93C83.36 326.51 74.34 330.8 64.44 330.8C51.46 330.8 40.02 325.3 30.12 314.3C20.44 303.3 14.72 291.75 12.96 279.65L21.87 273.71C23.19 275.47 25.61 276.35 29.13 276.35C32.65 276.35 35.51 275.03 37.71 272.39C39.91 269.53 41.23 266.67 41.67 263.81C42.11 260.73 42.33 256.77 42.33 251.93H38.37L21.87 232.13V208.04C31.55 208.04 38.37 208.37 42.33 209.03V146.33H38.7L22.2 126.53V80H141.66C167.18 80 187.53 86.82 202.71 100.46C218.11 113.88 225.81 133.68 225.81 159.86C225.81 174.6 221.74 187.58 213.6 198.8C216.24 201.66 218.99 204.96 221.85 208.7C225.37 208.26 231.64 208.04 240.66 208.04L257.16 227.84V251.93ZM59.49 218.93C61.25 217.83 63.78 215.19 67.08 211.01H75.66C78.52 214.97 81.05 217.61 83.25 218.93C86.33 215.19 89.74 212.55 93.48 211.01V193.85H132.75C148.59 193.85 159.04 199.13 164.1 209.69C170.04 211.01 174.99 214.09 178.95 218.93C181.15 217.17 183.68 214.53 186.54 211.01H195.45C197.87 214.97 200.4 217.61 203.04 218.93C204.58 216.73 206.67 214.75 209.31 212.99C204.69 201.55 195.45 191.54 181.59 182.96C193.91 171.74 200.07 157.55 200.07 140.39C200.07 106.29 179.5 89.24 138.36 89.24H31.44V117.29H52.23V212.66C54.43 213.76 56.85 215.85 59.49 218.93ZM169.38 243.35C169.38 266.01 156.51 277.34 130.77 277.34C105.25 277.34 92.49 266.01 92.49 243.35C92.49 239.39 94.03 235.32 97.11 231.14C100.41 226.74 105.69 224.54 112.95 224.54V216.62C108.99 216.62 105.91 216.84 103.71 217.28C101.51 217.5 98.76 218.82 95.46 221.24C92.16 223.44 89.08 226.85 86.22 231.47C80.94 230.37 75.99 226.63 71.37 220.25C66.97 225.97 62.13 229.71 56.85 231.47C53.99 226.85 50.91 223.44 47.61 221.24C44.31 218.82 41.56 217.5 39.36 217.28C37.16 216.84 34.08 216.62 30.12 216.62V224.54C44.2 224.54 51.24 233.67 51.24 251.93C51.24 258.97 50.8 264.58 49.92 268.76C49.26 272.94 47.17 276.79 43.65 280.31C40.35 283.83 35.4 285.59 28.8 285.59L23.19 284.93C28.47 296.37 36.5 302.09 47.28 302.09C52.34 302.09 56.74 300.88 60.48 298.46C64.44 296.04 68.84 292.19 73.68 286.91H76.32C82.26 292.19 88.86 295.93 96.12 298.13C103.6 300.33 115.26 301.43 131.1 301.43C184.34 301.43 210.96 286.03 210.96 255.23C210.96 234.77 218 224.54 232.08 224.54V216.62C228.12 216.62 225.04 216.84 222.84 217.28C220.86 217.5 218.22 218.82 214.92 221.24C211.62 223.44 208.54 226.85 205.68 231.47C200.62 230.37 195.78 226.63 191.16 220.25C186.76 225.97 181.59 229.71 175.65 231.47C172.79 226.85 169.71 223.44 166.41 221.24C163.33 218.82 160.69 217.5 158.49 217.28C156.51 216.84 153.43 216.62 149.25 216.62V224.54C156.51 224.54 161.68 226.63 164.76 230.81C167.84 234.99 169.38 239.17 169.38 243.35ZM118.89 176.69H93.48V117.29H118.89C133.63 117.29 143.53 119.38 148.59 123.56C153.87 127.74 156.51 135.33 156.51 146.33C156.51 166.57 143.97 176.69 118.89 176.69ZM140.67 222.56H133.41L138.03 227.84V251.93C125.05 252.37 118.56 256.66 118.56 264.8V266.45C122.08 267.33 126.26 267.77 131.1 267.77C147.16 267.77 156.62 262.49 159.48 251.93H157.17L140.67 232.13V222.56ZM119.22 146V167.78C132.64 167.78 140.89 165.14 143.97 159.86C146.17 156.12 147.27 151.72 147.27 146.66C147.05 146.22 143.09 146 135.39 146H119.22Z"/>
</mask>
<path d="M257.16 251.93C248.36 251.93 242.75 253.69 240.33 257.21C237.91 260.73 236.7 266.78 236.7 275.36C236.7 312.32 207 330.8 147.6 330.8C131.54 330.8 119.77 329.81 112.29 327.83C104.81 325.85 97.88 322.55 91.5 317.93C83.36 326.51 74.34 330.8 64.44 330.8C51.46 330.8 40.02 325.3 30.12 314.3C20.44 303.3 14.72 291.75 12.96 279.65L21.87 273.71C23.19 275.47 25.61 276.35 29.13 276.35C32.65 276.35 35.51 275.03 37.71 272.39C39.91 269.53 41.23 266.67 41.67 263.81C42.11 260.73 42.33 256.77 42.33 251.93H38.37L21.87 232.13V208.04C31.55 208.04 38.37 208.37 42.33 209.03V146.33H38.7L22.2 126.53V80H141.66C167.18 80 187.53 86.82 202.71 100.46C218.11 113.88 225.81 133.68 225.81 159.86C225.81 174.6 221.74 187.58 213.6 198.8C216.24 201.66 218.99 204.96 221.85 208.7C225.37 208.26 231.64 208.04 240.66 208.04L257.16 227.84V251.93ZM59.49 218.93C61.25 217.83 63.78 215.19 67.08 211.01H75.66C78.52 214.97 81.05 217.61 83.25 218.93C86.33 215.19 89.74 212.55 93.48 211.01V193.85H132.75C148.59 193.85 159.04 199.13 164.1 209.69C170.04 211.01 174.99 214.09 178.95 218.93C181.15 217.17 183.68 214.53 186.54 211.01H195.45C197.87 214.97 200.4 217.61 203.04 218.93C204.58 216.73 206.67 214.75 209.31 212.99C204.69 201.55 195.45 191.54 181.59 182.96C193.91 171.74 200.07 157.55 200.07 140.39C200.07 106.29 179.5 89.24 138.36 89.24H31.44V117.29H52.23V212.66C54.43 213.76 56.85 215.85 59.49 218.93ZM169.38 243.35C169.38 266.01 156.51 277.34 130.77 277.34C105.25 277.34 92.49 266.01 92.49 243.35C92.49 239.39 94.03 235.32 97.11 231.14C100.41 226.74 105.69 224.54 112.95 224.54V216.62C108.99 216.62 105.91 216.84 103.71 217.28C101.51 217.5 98.76 218.82 95.46 221.24C92.16 223.44 89.08 226.85 86.22 231.47C80.94 230.37 75.99 226.63 71.37 220.25C66.97 225.97 62.13 229.71 56.85 231.47C53.99 226.85 50.91 223.44 47.61 221.24C44.31 218.82 41.56 217.5 39.36 217.28C37.16 216.84 34.08 216.62 30.12 216.62V224.54C44.2 224.54 51.24 233.67 51.24 251.93C51.24 258.97 50.8 264.58 49.92 268.76C49.26 272.94 47.17 276.79 43.65 280.31C40.35 283.83 35.4 285.59 28.8 285.59L23.19 284.93C28.47 296.37 36.5 302.09 47.28 302.09C52.34 302.09 56.74 300.88 60.48 298.46C64.44 296.04 68.84 292.19 73.68 286.91H76.32C82.26 292.19 88.86 295.93 96.12 298.13C103.6 300.33 115.26 301.43 131.1 301.43C184.34 301.43 210.96 286.03 210.96 255.23C210.96 234.77 218 224.54 232.08 224.54V216.62C228.12 216.62 225.04 216.84 222.84 217.28C220.86 217.5 218.22 218.82 214.92 221.24C211.62 223.44 208.54 226.85 205.68 231.47C200.62 230.37 195.78 226.63 191.16 220.25C186.76 225.97 181.59 229.71 175.65 231.47C172.79 226.85 169.71 223.44 166.41 221.24C163.33 218.82 160.69 217.5 158.49 217.28C156.51 216.84 153.43 216.62 149.25 216.62V224.54C156.51 224.54 161.68 226.63 164.76 230.81C167.84 234.99 169.38 239.17 169.38 243.35ZM118.89 176.69H93.48V117.29H118.89C133.63 117.29 143.53 119.38 148.59 123.56C153.87 127.74 156.51 135.33 156.51 146.33C156.51 166.57 143.97 176.69 118.89 176.69ZM140.67 222.56H133.41L138.03 227.84V251.93C125.05 252.37 118.56 256.66 118.56 264.8V266.45C122.08 267.33 126.26 267.77 131.1 267.77C147.16 267.77 156.62 262.49 159.48 251.93H157.17L140.67 232.13V222.56ZM119.22 146V167.78C132.64 167.78 140.89 165.14 143.97 159.86C146.17 156.12 147.27 151.72 147.27 146.66C147.05 146.22 143.09 146 135.39 146H119.22Z" fill="white"/>
<path d="M257.16 251.93V256.93H262.16V251.93H257.16ZM112.29 327.83L113.569 322.996L113.569 322.996L112.29 327.83ZM91.5 317.93L94.4325 313.88L90.8862 311.312L87.8727 314.489L91.5 317.93ZM30.12 314.3L26.3664 317.603L26.3849 317.624L26.4035 317.645L30.12 314.3ZM12.96 279.65L10.1865 275.49L7.55722 277.243L8.01207 280.37L12.96 279.65ZM21.87 273.71L25.87 270.71L23.032 266.926L19.0965 269.55L21.87 273.71ZM37.71 272.39L41.5511 275.591L41.6136 275.516L41.6731 275.439L37.71 272.39ZM41.67 263.81L46.6119 264.57L46.6159 264.544L46.6197 264.517L41.67 263.81ZM42.33 251.93H47.33V246.93H42.33V251.93ZM38.37 251.93L34.5289 255.131L36.0281 256.93H38.37V251.93ZM21.87 232.13H16.87V233.94L18.0289 235.331L21.87 232.13ZM21.87 208.04V203.04H16.87V208.04H21.87ZM42.33 209.03L41.508 213.962L47.33 214.932V209.03H42.33ZM42.33 146.33H47.33V141.33H42.33V146.33ZM38.7 146.33L34.8589 149.531L36.3581 151.33H38.7V146.33ZM22.2 126.53H17.2V128.34L18.3589 129.731L22.2 126.53ZM22.2 80V75H17.2V80H22.2ZM202.71 100.46L199.368 104.179L199.396 104.205L199.425 104.23L202.71 100.46ZM213.6 198.8L209.553 195.864L207.147 199.181L209.926 202.191L213.6 198.8ZM221.85 208.7L217.878 211.737L219.622 214.017L222.47 213.661L221.85 208.7ZM240.66 208.04L244.501 204.839L243.002 203.04H240.66V208.04ZM257.16 227.84H262.16V226.03L261.001 224.639L257.16 227.84ZM59.49 218.93L55.6937 222.184L58.4928 225.45L62.14 223.17L59.49 218.93ZM67.08 211.01V206.01H64.657L63.1556 207.912L67.08 211.01ZM75.66 211.01L79.7134 208.083L78.2166 206.01H75.66V211.01ZM83.25 218.93L80.6775 223.217L84.3713 225.434L87.1097 222.109L83.25 218.93ZM93.48 211.01L95.3838 215.633L98.48 214.358V211.01H93.48ZM93.48 193.85V188.85H88.48V193.85H93.48ZM164.1 209.69L159.591 211.851L160.642 214.043L163.015 214.571L164.1 209.69ZM178.95 218.93L175.08 222.096L178.212 225.924L182.073 222.834L178.95 218.93ZM186.54 211.01V206.01H184.16L182.659 207.857L186.54 211.01ZM195.45 211.01L199.716 208.403L198.254 206.01H195.45V211.01ZM203.04 218.93L200.804 223.402L204.662 225.331L207.136 221.797L203.04 218.93ZM209.31 212.99L212.084 217.15L215.471 214.892L213.946 211.118L209.31 212.99ZM181.59 182.96L178.223 179.263L173.325 183.724L178.958 187.211L181.59 182.96ZM31.44 89.24V84.24H26.44V89.24H31.44ZM31.44 117.29H26.44V122.29H31.44V117.29ZM52.23 117.29H57.23V112.29H52.23V117.29ZM52.23 212.66H47.23V215.75L49.9939 217.132L52.23 212.66ZM97.11 231.14L93.11 228.14L93.0973 228.157L93.0847 228.174L97.11 231.14ZM112.95 224.54V229.54H117.95V224.54H112.95ZM112.95 216.62H117.95V211.62H112.95V216.62ZM103.71 217.28L104.208 222.255L104.451 222.231L104.691 222.183L103.71 217.28ZM95.46 221.24L98.2335 225.4L98.3266 225.338L98.4168 225.272L95.46 221.24ZM86.22 231.47L85.2002 236.365L88.6282 237.079L90.4713 234.102L86.22 231.47ZM71.37 220.25L75.4197 217.317L71.491 211.892L67.4069 217.201L71.37 220.25ZM56.85 231.47L52.5987 234.102L54.6799 237.464L58.4311 236.213L56.85 231.47ZM47.61 221.24L44.6532 225.272L44.7434 225.338L44.8365 225.4L47.61 221.24ZM39.36 217.28L38.3794 222.183L38.6192 222.231L38.8625 222.255L39.36 217.28ZM30.12 216.62V211.62H25.12V216.62H30.12ZM30.12 224.54H25.12V229.54H30.12V224.54ZM49.92 268.76L45.0273 267.73L45.001 267.854L44.9812 267.98L49.92 268.76ZM43.65 280.31L40.1145 276.774L40.0575 276.831L40.0023 276.89L43.65 280.31ZM28.8 285.59L28.2158 290.556L28.5069 290.59H28.8V285.59ZM23.19 284.93L23.7742 279.964L14.9099 278.921L18.6502 287.025L23.19 284.93ZM60.48 298.46L57.8728 294.194L57.8178 294.227L57.7637 294.262L60.48 298.46ZM73.68 286.91V281.91H71.4805L69.9942 283.531L73.68 286.91ZM76.32 286.91L79.6418 283.173L78.221 281.91H76.32V286.91ZM96.12 298.13L94.67 302.915L94.6895 302.921L94.7092 302.927L96.12 298.13ZM232.08 224.54V229.54H237.08V224.54H232.08ZM232.08 216.62H237.08V211.62H232.08V216.62ZM222.84 217.28L223.392 222.249L223.608 222.225L223.821 222.183L222.84 217.28ZM214.92 221.24L217.694 225.4L217.787 225.338L217.877 225.272L214.92 221.24ZM205.68 231.47L204.618 236.356L208.071 237.107L209.931 234.102L205.68 231.47ZM191.16 220.25L195.21 217.317L191.281 211.892L187.197 217.201L191.16 220.25ZM175.65 231.47L171.399 234.102L173.409 237.349L177.07 236.264L175.65 231.47ZM166.41 221.24L163.321 225.172L163.474 225.292L163.637 225.4L166.41 221.24ZM158.49 217.28L157.405 222.161L157.696 222.226L157.992 222.255L158.49 217.28ZM149.25 216.62V211.62H144.25V216.62H149.25ZM149.25 224.54H144.25V229.54H149.25V224.54ZM93.48 176.69H88.48V181.69H93.48V176.69ZM93.48 117.29V112.29H88.48V117.29H93.48ZM148.59 123.56L145.406 127.415L145.446 127.448L145.486 127.48L148.59 123.56ZM140.67 222.56H145.67V217.56H140.67V222.56ZM133.41 222.56V217.56H122.391L129.647 225.853L133.41 222.56ZM138.03 227.84H143.03V225.961L141.793 224.547L138.03 227.84ZM138.03 251.93L138.199 256.927L143.03 256.763V251.93H138.03ZM118.56 266.45H113.56V270.354L117.347 271.301L118.56 266.45ZM159.48 251.93L164.306 253.237L166.014 246.93H159.48V251.93ZM157.17 251.93L153.329 255.131L154.828 256.93H157.17V251.93ZM140.67 232.13H135.67V233.94L136.829 235.331L140.67 232.13ZM119.22 146V141H114.22V146H119.22ZM119.22 167.78H114.22V172.78H119.22V167.78ZM143.97 159.86L139.66 157.325L139.656 157.333L139.651 157.341L143.97 159.86ZM147.27 146.66H152.27V145.48L151.742 144.424L147.27 146.66ZM257.16 246.93C252.478 246.93 248.322 247.392 244.856 248.479C241.381 249.57 238.254 251.404 236.21 254.377L244.45 260.043C244.826 259.496 245.714 258.69 247.849 258.021C249.993 257.348 253.042 256.93 257.16 256.93V246.93ZM236.21 254.377C232.876 259.227 231.7 266.612 231.7 275.36H241.7C241.7 266.948 242.944 262.233 244.45 260.043L236.21 254.377ZM231.7 275.36C231.7 292.231 225.069 304.428 211.784 312.695C198.104 321.206 176.944 325.8 147.6 325.8V335.8C177.657 335.8 201.046 331.154 217.067 321.185C233.481 310.972 241.7 295.449 241.7 275.36H231.7ZM147.6 325.8C131.613 325.8 120.388 324.801 113.569 322.996L111.011 332.664C119.152 334.819 131.467 335.8 147.6 335.8V325.8ZM113.569 322.996C106.695 321.177 100.324 318.146 94.4325 313.88L88.5675 321.98C95.4364 326.954 102.925 330.523 111.011 332.664L113.569 322.996ZM87.8727 314.489C80.4782 322.283 72.7042 325.8 64.44 325.8V335.8C75.9758 335.8 86.2418 330.737 95.1273 321.371L87.8727 314.489ZM64.44 325.8C53.0832 325.8 42.9352 321.065 33.8365 310.955L26.4035 317.645C37.1048 329.535 49.8368 335.8 64.44 335.8V325.8ZM33.8736 310.997C24.705 300.578 19.5029 289.896 17.9079 278.93L8.01207 280.37C9.93711 293.604 16.175 306.022 26.3664 317.603L33.8736 310.997ZM15.7335 283.81L24.6435 277.87L19.0965 269.55L10.1865 275.49L15.7335 283.81ZM17.87 276.71C20.5879 280.334 24.9888 281.35 29.13 281.35V271.35C27.7536 271.35 26.8858 271.174 26.3837 270.991C26.1446 270.904 26.0126 270.825 25.9497 270.78C25.8913 270.739 25.8742 270.716 25.87 270.71L17.87 276.71ZM29.13 281.35C34.0923 281.35 38.3748 279.402 41.5511 275.591L33.8689 269.189C32.6452 270.658 31.2077 271.35 29.13 271.35V281.35ZM41.6731 275.439C44.262 272.073 46.0158 268.445 46.6119 264.57L36.7281 263.05C36.4442 264.895 35.558 266.987 33.7469 269.341L41.6731 275.439ZM46.6197 264.517C47.1062 261.112 47.33 256.892 47.33 251.93H37.33C37.33 256.648 37.1138 260.348 36.7203 263.103L46.6197 264.517ZM42.33 246.93H38.37V256.93H42.33V246.93ZM42.2111 248.729L25.7111 228.929L18.0289 235.331L34.5289 255.131L42.2111 248.729ZM26.87 232.13V208.04H16.87V232.13H26.87ZM21.87 213.04C31.5508 213.04 37.9988 213.377 41.508 213.962L43.152 204.098C38.7412 203.363 31.5492 203.04 21.87 203.04V213.04ZM47.33 209.03V146.33H37.33V209.03H47.33ZM42.33 141.33H38.7V151.33H42.33V141.33ZM42.5411 143.129L26.0411 123.329L18.3589 129.731L34.8589 149.531L42.5411 143.129ZM27.2 126.53V80H17.2V126.53H27.2ZM22.2 85H141.66V75H22.2V85ZM141.66 85C166.267 85 185.32 91.5559 199.368 104.179L206.052 96.7408C189.74 82.0841 168.093 75 141.66 75V85ZM199.425 104.23C213.445 116.447 220.81 134.689 220.81 159.86H230.81C230.81 132.671 222.775 111.313 205.995 96.6904L199.425 104.23ZM220.81 159.86C220.81 173.616 217.033 185.553 209.553 195.864L217.647 201.736C226.447 189.607 230.81 175.584 230.81 159.86H220.81ZM209.926 202.191C212.442 204.917 215.093 208.095 217.878 211.737L225.822 205.663C222.887 201.825 220.038 198.403 217.274 195.409L209.926 202.191ZM222.47 213.661C225.644 213.265 231.627 213.04 240.66 213.04V203.04C231.653 203.04 225.096 203.255 221.23 203.739L222.47 213.661ZM236.819 211.241L253.319 231.041L261.001 224.639L244.501 204.839L236.819 211.241ZM252.16 227.84V251.93H262.16V227.84H252.16ZM62.14 223.17C64.7279 221.553 67.7371 218.247 71.0044 214.108L63.1556 207.912C59.8229 212.133 57.7721 214.107 56.84 214.69L62.14 223.17ZM67.08 216.01H75.66V206.01H67.08V216.01ZM71.6066 213.937C74.5695 218.04 77.5826 221.361 80.6775 223.217L85.8225 214.643C84.5174 213.859 82.4705 211.9 79.7134 208.083L71.6066 213.937ZM87.1097 222.109C89.7695 218.879 92.5416 216.804 95.3838 215.633L91.5763 206.387C86.9384 208.296 82.8905 211.501 79.3904 215.751L87.1097 222.109ZM98.48 211.01V193.85H88.48V211.01H98.48ZM93.48 198.85H132.75V188.85H93.48V198.85ZM132.75 198.85C147.462 198.85 155.658 203.644 159.591 211.851L168.609 207.529C162.422 194.616 149.718 188.85 132.75 188.85V198.85ZM163.015 214.571C167.829 215.641 171.809 218.098 175.08 222.096L182.82 215.764C178.171 210.082 172.251 206.379 165.185 204.809L163.015 214.571ZM182.073 222.834C184.668 220.759 187.454 217.814 190.421 214.163L182.659 207.857C179.906 211.246 177.632 213.581 175.827 215.026L182.073 222.834ZM186.54 216.01H195.45V206.01H186.54V216.01ZM191.184 213.617C193.836 217.958 196.975 221.487 200.804 223.402L205.276 214.458C203.825 213.733 201.904 211.982 199.716 208.403L191.184 213.617ZM207.136 221.797C208.261 220.19 209.869 218.627 212.084 217.15L206.537 208.83C203.471 210.873 200.899 213.27 198.944 216.063L207.136 221.797ZM213.946 211.118C208.817 198.418 198.697 187.67 184.222 178.709L178.958 187.211C192.203 195.41 200.563 204.682 204.674 214.862L213.946 211.118ZM184.957 186.657C198.352 174.458 205.07 158.91 205.07 140.39H195.07C195.07 156.19 189.468 169.022 178.223 179.263L184.957 186.657ZM205.07 140.39C205.07 122.296 199.568 107.904 187.833 98.178C176.279 88.6005 159.496 84.24 138.36 84.24V94.24C158.364 94.24 172.436 98.4045 181.452 105.877C190.287 113.201 195.07 124.383 195.07 140.39H205.07ZM138.36 84.24H31.44V94.24H138.36V84.24ZM26.44 89.24V117.29H36.44V89.24H26.44ZM31.44 122.29H52.23V112.29H31.44V122.29ZM47.23 117.29V212.66H57.23V117.29H47.23ZM49.9939 217.132C51.334 217.802 53.2418 219.323 55.6937 222.184L63.2863 215.676C60.4582 212.377 57.526 209.718 54.4661 208.188L49.9939 217.132ZM164.38 243.35C164.38 253.732 161.461 260.655 156.424 265.09C151.265 269.631 143.015 272.34 130.77 272.34V282.34C144.265 282.34 155.32 279.384 163.031 272.595C170.864 265.7 174.38 255.628 174.38 243.35H164.38ZM130.77 272.34C118.644 272.34 110.483 269.635 105.38 265.104C100.389 260.673 97.49 253.745 97.49 243.35H87.49C87.49 255.615 90.9706 265.682 98.7402 272.581C106.397 279.38 117.376 282.34 130.77 282.34V272.34ZM97.49 243.35C97.49 240.747 98.4921 237.693 101.135 234.106L93.0847 228.174C89.5679 232.947 87.49 238.033 87.49 243.35H97.49ZM101.11 234.14C103.179 231.381 106.716 229.54 112.95 229.54V219.54C104.664 219.54 97.6408 222.099 93.11 228.14L101.11 234.14ZM117.95 224.54V216.62H107.95V224.54H117.95ZM112.95 211.62C108.87 211.62 105.407 211.842 102.729 212.377L104.691 222.183C106.413 221.838 109.11 221.62 112.95 221.62V211.62ZM103.212 212.305C99.6479 212.661 96.0039 214.641 92.5032 217.208L98.4168 225.272C101.516 222.999 103.372 222.339 104.208 222.255L103.212 212.305ZM92.6865 217.08C88.6123 219.796 85.0746 223.821 81.9687 228.838L90.4713 234.102C93.0854 229.879 95.7077 227.084 98.2335 225.4L92.6865 217.08ZM87.2398 226.575C83.6373 225.825 79.6406 223.146 75.4197 217.317L67.3203 223.183C72.3394 230.114 78.2427 234.915 85.2002 236.365L87.2398 226.575ZM67.4069 217.201C63.4358 222.364 59.3597 225.363 55.2689 226.727L58.4311 236.213C64.9003 234.057 70.5042 229.576 75.3331 223.299L67.4069 217.201ZM61.1013 228.838C57.9954 223.821 54.4577 219.796 50.3835 217.08L44.8365 225.4C47.3623 227.084 49.9846 229.879 52.5987 234.102L61.1013 228.838ZM50.5668 217.208C47.0662 214.641 43.4222 212.661 39.8575 212.305L38.8625 222.255C39.6979 222.339 41.5538 222.999 44.6532 225.272L50.5668 217.208ZM40.3406 212.377C37.6627 211.842 34.2004 211.62 30.12 211.62V221.62C33.9596 221.62 36.6573 221.838 38.3794 222.183L40.3406 212.377ZM25.12 216.62V224.54H35.12V216.62H25.12ZM30.12 229.54C35.9912 229.54 39.638 231.377 42.0004 234.441C44.5529 237.751 46.24 243.303 46.24 251.93H56.24C56.24 242.297 54.4071 234.154 49.9196 228.334C45.242 222.268 38.3288 219.54 30.12 219.54V229.54ZM46.24 251.93C46.24 258.815 45.8051 264.035 45.0273 267.73L54.8128 269.79C55.7949 265.125 56.24 259.125 56.24 251.93H46.24ZM44.9812 267.98C44.5136 270.941 43.0231 273.866 40.1145 276.774L47.1855 283.846C51.3169 279.714 54.0064 274.939 54.8588 269.54L44.9812 267.98ZM40.0023 276.89C37.9554 279.074 34.5437 280.59 28.8 280.59V290.59C36.2563 290.59 42.7446 288.586 47.2977 283.73L40.0023 276.89ZM29.3842 280.624L23.7742 279.964L22.6058 289.896L28.2158 290.556L29.3842 280.624ZM18.6502 287.025C21.5556 293.32 25.3765 298.386 30.2716 301.872C35.2131 305.392 40.9522 307.09 47.28 307.09V297.09C42.8278 297.09 39.1619 295.928 36.0734 293.728C32.9385 291.494 30.1044 287.98 27.7298 282.835L18.6502 287.025ZM47.28 307.09C53.1691 307.09 58.5409 305.67 63.1963 302.658L57.7637 294.262C54.9391 296.09 51.5109 297.09 47.28 297.09V307.09ZM63.0873 302.726C67.6011 299.968 72.3613 295.748 77.3658 290.289L69.9942 283.531C65.3187 288.632 61.2789 292.112 57.8728 294.194L63.0873 302.726ZM73.68 291.91H76.32V281.91H73.68V291.91ZM72.9982 290.647C79.4526 296.384 86.6846 300.495 94.67 302.915L97.57 293.345C91.0354 291.365 85.0674 287.996 79.6418 283.173L72.9982 290.647ZM94.7092 302.927C102.91 305.339 115.168 306.43 131.1 306.43V296.43C115.352 296.43 104.29 295.321 97.5308 293.333L94.7092 302.927ZM131.1 306.43C158.038 306.43 179.057 302.563 193.499 294.208C208.357 285.613 215.96 272.411 215.96 255.23H205.96C205.96 268.849 200.253 278.747 188.491 285.552C176.313 292.597 157.402 296.43 131.1 296.43V306.43ZM215.96 255.23C215.96 245.418 217.676 238.945 220.359 235.047C222.81 231.486 226.43 229.54 232.08 229.54V219.54C223.65 219.54 216.71 222.709 212.121 229.378C207.764 235.71 205.96 244.582 205.96 255.23H215.96ZM237.08 224.54V216.62H227.08V224.54H237.08ZM232.08 211.62C228 211.62 224.537 211.842 221.859 212.377L223.821 222.183C225.543 221.838 228.24 221.62 232.08 221.62V211.62ZM222.288 212.311C218.917 212.685 215.37 214.71 211.963 217.208L217.877 225.272C221.07 222.93 222.803 222.315 223.392 222.249L222.288 212.311ZM212.147 217.08C208.072 219.796 204.535 223.821 201.429 228.838L209.931 234.102C212.545 229.879 215.168 227.084 217.694 225.4L212.147 217.08ZM206.742 226.584C203.377 225.853 199.472 223.203 195.21 217.317L187.11 223.183C192.088 230.057 197.863 234.887 204.618 236.356L206.742 226.584ZM187.197 217.201C183.33 222.229 179 225.263 174.23 226.676L177.07 236.264C184.18 234.157 190.19 229.711 195.123 223.299L187.197 217.201ZM179.901 228.838C176.795 223.821 173.258 219.796 169.184 217.08L163.637 225.4C166.162 227.084 168.785 229.879 171.399 234.102L179.901 228.838ZM169.499 217.308C166.174 214.696 162.613 212.667 158.988 212.305L157.992 222.255C158.767 222.333 160.486 222.944 163.321 225.172L169.499 217.308ZM159.575 212.399C157.033 211.834 153.496 211.62 149.25 211.62V221.62C153.364 221.62 155.987 221.846 157.405 222.161L159.575 212.399ZM144.25 216.62V224.54H154.25V216.62H144.25ZM149.25 229.54C155.598 229.54 158.937 231.336 160.735 233.776L168.785 227.844C164.423 221.924 157.422 219.54 149.25 219.54V229.54ZM160.735 233.776C163.337 237.308 164.38 240.473 164.38 243.35H174.38C174.38 237.867 172.343 232.672 168.785 227.844L160.735 233.776ZM118.89 171.69H93.48V181.69H118.89V171.69ZM98.48 176.69V117.29H88.48V176.69H98.48ZM93.48 122.29H118.89V112.29H93.48V122.29ZM118.89 122.29C126.055 122.29 131.842 122.801 136.337 123.75C140.886 124.71 143.746 126.044 145.406 127.415L151.774 119.705C148.374 116.896 143.754 115.095 138.403 113.965C132.998 112.824 126.465 112.29 118.89 112.29V122.29ZM145.486 127.48C148.978 130.244 151.51 135.899 151.51 146.33H161.51C161.51 134.761 158.762 125.236 151.694 119.64L145.486 127.48ZM151.51 146.33C151.51 155.362 148.765 161.335 143.965 165.209C138.96 169.248 130.888 171.69 118.89 171.69V181.69C131.972 181.69 142.71 179.072 150.245 172.991C157.985 166.745 161.51 157.538 161.51 146.33H151.51ZM140.67 217.56H133.41V227.56H140.67V217.56ZM129.647 225.853L134.267 231.133L141.793 224.547L137.173 219.267L129.647 225.853ZM133.03 227.84V251.93H143.03V227.84H133.03ZM137.861 246.933C130.998 247.165 125.042 248.417 120.67 251.306C115.949 254.427 113.56 259.144 113.56 264.8H123.56C123.56 262.316 124.416 260.818 126.185 259.649C128.303 258.248 132.082 257.135 138.199 256.927L137.861 246.933ZM113.56 264.8V266.45H123.56V264.8H113.56ZM117.347 271.301C121.37 272.306 125.978 272.77 131.1 272.77V262.77C126.542 262.77 122.79 262.353 119.773 261.599L117.347 271.301ZM131.1 272.77C139.601 272.77 146.928 271.385 152.677 268.176C158.596 264.872 162.528 259.802 164.306 253.237L154.654 250.623C153.572 254.618 151.344 257.468 147.803 259.444C144.092 261.515 138.659 262.77 131.1 262.77V272.77ZM159.48 246.93H157.17V256.93H159.48V246.93ZM161.011 248.729L144.511 228.929L136.829 235.331L153.329 255.131L161.011 248.729ZM145.67 232.13V222.56H135.67V232.13H145.67ZM114.22 146V167.78H124.22V146H114.22ZM119.22 172.78C126.196 172.78 132.186 172.101 136.996 170.562C141.81 169.022 145.909 166.459 148.289 162.379L139.651 157.341C138.951 158.541 137.385 159.938 133.949 161.038C130.509 162.139 125.664 162.78 119.22 162.78V172.78ZM148.28 162.395C151.002 157.767 152.27 152.462 152.27 146.66H142.27C142.27 150.978 141.338 154.473 139.66 157.325L148.28 162.395ZM151.742 144.424C151.113 143.165 150.152 142.529 149.757 142.293C149.285 142.009 148.853 141.848 148.593 141.762C148.065 141.586 147.55 141.49 147.184 141.432C146.409 141.31 145.452 141.23 144.412 141.173C142.29 141.055 139.264 141 135.39 141V151C139.216 151 142.02 151.055 143.858 151.157C144.798 151.21 145.354 151.267 145.624 151.31C145.78 151.335 145.67 151.329 145.431 151.249C145.316 151.21 144.999 151.099 144.612 150.868C144.304 150.682 143.4 150.1 142.798 148.896L151.742 144.424ZM135.39 141H119.22V151H135.39V141Z" fill="#3A586E" mask="url(#path-1-outside-1_1_2844)"/>
</g>
<g filter="url(#filter1_d_1_2844)">
<mask id="path-3-outside-2_1_2844" maskUnits="userSpaceOnUse" x="259" y="243" width="215" height="261" fill="black">
<rect fill="white" x="259" y="243" width="215" height="261"/>
<path d="M391.32 314.33H371.52V376.04H373.83L390.33 395.84V419.93C386.81 420.15 383.95 420.48 381.75 420.92C379.55 421.14 377.24 422.24 374.82 424.22C372.4 426.2 371.19 429.06 371.19 432.8V434.12C374.27 435.22 378.67 435.77 384.39 435.77C390.11 435.77 395.5 434.01 400.56 430.49C405.62 426.97 408.15 422.02 408.15 415.64C408.15 414.54 407.49 411.35 406.17 406.07V395.51H444.45L460.95 415.31V474.71C460.95 482.41 462.93 487.47 466.89 489.89L460.95 498.8C455.23 498.8 449.18 497.37 442.8 494.51C436.64 491.65 431.8 488.57 428.28 485.27C424.54 488.57 418.16 491.65 409.14 494.51C400.34 497.37 391.98 498.8 384.06 498.8C368 498.8 354.91 494.51 344.79 485.93C335.77 494.51 325.43 498.8 313.77 498.8C302.33 498.8 291.66 493.19 281.76 481.97C272.08 470.97 266.47 459.53 264.93 447.65L274.17 441.71C275.27 443.47 277.47 444.35 280.77 444.35C289.57 444.35 293.97 436.21 293.97 419.93H290.67L274.17 400.13V376.04C283.41 376.04 289.9 376.37 293.64 377.03V314.33H291L274.5 294.53V248H374.82L391.32 267.8V314.33ZM417.06 416.96C417.06 425.76 413.65 432.69 406.83 437.75C400.23 442.81 392.09 445.34 382.41 445.34C372.73 445.34 364.04 442.59 356.34 437.09C348.86 431.37 345.12 422.79 345.12 411.35C345.12 407.39 346.66 403.32 349.74 399.14C353.04 394.74 358.21 392.54 365.25 392.54V384.62C361.29 384.62 358.21 384.84 356.01 385.28C354.03 385.5 351.39 386.82 348.09 389.24C344.79 391.44 341.82 394.85 339.18 399.47C333.9 398.37 328.84 394.63 324 388.25C320.04 393.97 315.09 397.71 309.15 399.47C306.29 394.85 303.21 391.44 299.91 389.24C296.61 386.82 293.86 385.5 291.66 385.28C289.68 384.84 286.71 384.62 282.75 384.62V392.54C290.23 392.54 295.62 395.18 298.92 400.46C302.44 405.52 304.2 412.67 304.2 421.91C304.2 431.15 302.66 438.74 299.58 444.68C296.72 450.62 290.56 453.59 281.1 453.59L276.48 452.93C280.44 464.15 287.37 469.76 297.27 469.76C307.17 469.76 316.85 464.81 326.31 454.91H329.28L330.6 456.23C341.16 465.03 353.92 469.43 368.88 469.43C384.06 469.43 398.36 464.26 411.78 453.92C413.76 455.9 417.83 458.76 423.99 462.5C430.15 466.02 434.99 468.11 438.51 468.77C436.53 466.57 435.54 460.85 435.54 451.61V405.41H415.41C416.51 409.15 417.06 413 417.06 416.96ZM311.79 386.93C313.99 385.61 316.63 382.97 319.71 379.01H328.62C331.48 382.97 334.01 385.61 336.21 386.93C338.63 383.85 341.6 381.43 345.12 379.67V285.29H365.58V257.24H283.74V285.29H303.54V380C306.4 381.54 309.15 383.85 311.79 386.93Z"/>
</mask>
<path d="M391.32 314.33H371.52V376.04H373.83L390.33 395.84V419.93C386.81 420.15 383.95 420.48 381.75 420.92C379.55 421.14 377.24 422.24 374.82 424.22C372.4 426.2 371.19 429.06 371.19 432.8V434.12C374.27 435.22 378.67 435.77 384.39 435.77C390.11 435.77 395.5 434.01 400.56 430.49C405.62 426.97 408.15 422.02 408.15 415.64C408.15 414.54 407.49 411.35 406.17 406.07V395.51H444.45L460.95 415.31V474.71C460.95 482.41 462.93 487.47 466.89 489.89L460.95 498.8C455.23 498.8 449.18 497.37 442.8 494.51C436.64 491.65 431.8 488.57 428.28 485.27C424.54 488.57 418.16 491.65 409.14 494.51C400.34 497.37 391.98 498.8 384.06 498.8C368 498.8 354.91 494.51 344.79 485.93C335.77 494.51 325.43 498.8 313.77 498.8C302.33 498.8 291.66 493.19 281.76 481.97C272.08 470.97 266.47 459.53 264.93 447.65L274.17 441.71C275.27 443.47 277.47 444.35 280.77 444.35C289.57 444.35 293.97 436.21 293.97 419.93H290.67L274.17 400.13V376.04C283.41 376.04 289.9 376.37 293.64 377.03V314.33H291L274.5 294.53V248H374.82L391.32 267.8V314.33ZM417.06 416.96C417.06 425.76 413.65 432.69 406.83 437.75C400.23 442.81 392.09 445.34 382.41 445.34C372.73 445.34 364.04 442.59 356.34 437.09C348.86 431.37 345.12 422.79 345.12 411.35C345.12 407.39 346.66 403.32 349.74 399.14C353.04 394.74 358.21 392.54 365.25 392.54V384.62C361.29 384.62 358.21 384.84 356.01 385.28C354.03 385.5 351.39 386.82 348.09 389.24C344.79 391.44 341.82 394.85 339.18 399.47C333.9 398.37 328.84 394.63 324 388.25C320.04 393.97 315.09 397.71 309.15 399.47C306.29 394.85 303.21 391.44 299.91 389.24C296.61 386.82 293.86 385.5 291.66 385.28C289.68 384.84 286.71 384.62 282.75 384.62V392.54C290.23 392.54 295.62 395.18 298.92 400.46C302.44 405.52 304.2 412.67 304.2 421.91C304.2 431.15 302.66 438.74 299.58 444.68C296.72 450.62 290.56 453.59 281.1 453.59L276.48 452.93C280.44 464.15 287.37 469.76 297.27 469.76C307.17 469.76 316.85 464.81 326.31 454.91H329.28L330.6 456.23C341.16 465.03 353.92 469.43 368.88 469.43C384.06 469.43 398.36 464.26 411.78 453.92C413.76 455.9 417.83 458.76 423.99 462.5C430.15 466.02 434.99 468.11 438.51 468.77C436.53 466.57 435.54 460.85 435.54 451.61V405.41H415.41C416.51 409.15 417.06 413 417.06 416.96ZM311.79 386.93C313.99 385.61 316.63 382.97 319.71 379.01H328.62C331.48 382.97 334.01 385.61 336.21 386.93C338.63 383.85 341.6 381.43 345.12 379.67V285.29H365.58V257.24H283.74V285.29H303.54V380C306.4 381.54 309.15 383.85 311.79 386.93Z" fill="white"/>
<path d="M391.32 314.33V319.33H396.32V314.33H391.32ZM371.52 314.33V309.33H366.52V314.33H371.52ZM371.52 376.04H366.52V381.04H371.52V376.04ZM373.83 376.04L377.671 372.839L376.172 371.04H373.83V376.04ZM390.33 395.84H395.33V394.03L394.171 392.639L390.33 395.84ZM390.33 419.93L390.642 424.92L395.33 424.627V419.93H390.33ZM381.75 420.92L382.248 425.895L382.491 425.871L382.731 425.823L381.75 420.92ZM374.82 424.22L371.654 420.35L371.654 420.35L374.82 424.22ZM371.19 434.12H366.19V437.644L369.508 438.829L371.19 434.12ZM400.56 430.49L403.415 434.595L403.415 434.595L400.56 430.49ZM406.17 406.07H401.17V406.686L401.319 407.283L406.17 406.07ZM406.17 395.51V390.51H401.17V395.51H406.17ZM444.45 395.51L448.291 392.309L446.792 390.51H444.45V395.51ZM460.95 415.31H465.95V413.5L464.791 412.109L460.95 415.31ZM466.89 489.89L471.05 492.664L473.935 488.336L469.497 485.624L466.89 489.89ZM460.95 498.8V503.8H463.626L465.11 501.574L460.95 498.8ZM442.8 494.51L440.694 499.045L440.724 499.059L440.755 499.073L442.8 494.51ZM428.28 485.27L431.7 481.622L428.382 478.512L424.972 481.521L428.28 485.27ZM409.14 494.51L407.629 489.744L407.612 489.749L407.595 489.755L409.14 494.51ZM344.79 485.93L348.023 482.116L344.598 479.212L341.344 482.307L344.79 485.93ZM281.76 481.97L278.006 485.273L278.011 485.278L281.76 481.97ZM264.93 447.65L262.226 443.444L259.565 445.155L259.971 448.293L264.93 447.65ZM274.17 441.71L278.41 439.06L275.726 434.766L271.466 437.504L274.17 441.71ZM293.97 419.93H298.97V414.93H293.97V419.93ZM290.67 419.93L286.829 423.131L288.328 424.93H290.67V419.93ZM274.17 400.13H269.17V401.94L270.329 403.331L274.17 400.13ZM274.17 376.04V371.04H269.17V376.04H274.17ZM293.64 377.03L292.771 381.954L298.64 382.99V377.03H293.64ZM293.64 314.33H298.64V309.33H293.64V314.33ZM291 314.33L287.159 317.531L288.658 319.33H291V314.33ZM274.5 294.53H269.5V296.34L270.659 297.731L274.5 294.53ZM274.5 248V243H269.5V248H274.5ZM374.82 248L378.661 244.799L377.162 243H374.82V248ZM391.32 267.8H396.32V265.99L395.161 264.599L391.32 267.8ZM406.83 437.75L403.851 433.735L403.819 433.758L403.788 433.782L406.83 437.75ZM356.34 437.09L353.303 441.062L353.367 441.111L353.434 441.159L356.34 437.09ZM349.74 399.14L345.74 396.14L345.727 396.157L345.715 396.174L349.74 399.14ZM365.25 392.54V397.54H370.25V392.54H365.25ZM365.25 384.62H370.25V379.62H365.25V384.62ZM356.01 385.28L356.562 390.249L356.778 390.225L356.991 390.183L356.01 385.28ZM348.09 389.24L350.864 393.4L350.957 393.338L351.047 393.272L348.09 389.24ZM339.18 399.47L338.16 404.365L341.718 405.106L343.521 401.951L339.18 399.47ZM324 388.25L327.983 385.228L323.815 379.733L319.889 385.404L324 388.25ZM309.15 399.47L304.899 402.102L306.909 405.349L310.57 404.264L309.15 399.47ZM299.91 389.24L296.953 393.272L297.043 393.338L297.137 393.4L299.91 389.24ZM291.66 385.28L290.575 390.161L290.866 390.226L291.162 390.255L291.66 385.28ZM282.75 384.62V379.62H277.75V384.62H282.75ZM282.75 392.54H277.75V397.54H282.75V392.54ZM298.92 400.46L294.68 403.11L294.745 403.214L294.815 403.315L298.92 400.46ZM299.58 444.68L295.141 442.378L295.107 442.444L295.075 442.511L299.58 444.68ZM281.1 453.59L280.393 458.54L280.745 458.59H281.1V453.59ZM276.48 452.93L277.187 447.98L269.019 446.813L271.765 454.594L276.48 452.93ZM326.31 454.91V449.91H324.172L322.695 451.456L326.31 454.91ZM329.28 454.91L332.816 451.374L331.351 449.91H329.28V454.91ZM330.6 456.23L327.064 459.766L327.225 459.926L327.399 460.071L330.6 456.23ZM411.78 453.92L415.316 450.384L412.209 447.278L408.728 449.959L411.78 453.92ZM423.99 462.5L421.395 466.774L421.452 466.808L421.509 466.841L423.99 462.5ZM438.51 468.77L437.589 473.684L452.11 476.407L442.226 465.425L438.51 468.77ZM435.54 405.41H440.54V400.41H435.54V405.41ZM415.41 405.41V400.41H408.728L410.613 406.821L415.41 405.41ZM311.79 386.93L307.994 390.184L310.742 393.39L314.362 391.217L311.79 386.93ZM319.71 379.01V374.01H317.265L315.763 375.94L319.71 379.01ZM328.62 379.01L332.673 376.083L331.177 374.01H328.62V379.01ZM336.21 386.93L333.638 391.217L337.418 393.486L340.142 390.019L336.21 386.93ZM345.12 379.67L347.356 384.142L350.12 382.76V379.67H345.12ZM345.12 285.29V280.29H340.12V285.29H345.12ZM365.58 285.29V290.29H370.58V285.29H365.58ZM365.58 257.24H370.58V252.24H365.58V257.24ZM283.74 257.24V252.24H278.74V257.24H283.74ZM283.74 285.29H278.74V290.29H283.74V285.29ZM303.54 285.29H308.54V280.29H303.54V285.29ZM303.54 380H298.54V382.986L301.17 384.402L303.54 380ZM391.32 309.33H371.52V319.33H391.32V309.33ZM366.52 314.33V376.04H376.52V314.33H366.52ZM371.52 381.04H373.83V371.04H371.52V381.04ZM369.989 379.241L386.489 399.041L394.171 392.639L377.671 372.839L369.989 379.241ZM385.33 395.84V419.93H395.33V395.84H385.33ZM390.018 414.94C386.385 415.167 383.278 415.515 380.769 416.017L382.731 425.823C384.622 425.445 387.235 425.133 390.642 424.92L390.018 414.94ZM381.252 415.945C377.746 416.295 374.533 417.995 371.654 420.35L377.986 428.09C379.947 426.485 381.354 425.985 382.248 425.895L381.252 415.945ZM371.654 420.35C367.843 423.469 366.19 427.886 366.19 432.8H376.19C376.19 430.234 376.958 428.931 377.986 428.09L371.654 420.35ZM366.19 432.8V434.12H376.19V432.8H366.19ZM369.508 438.829C373.388 440.214 378.459 440.77 384.39 440.77V430.77C378.881 430.77 375.152 430.226 372.872 429.411L369.508 438.829ZM384.39 440.77C391.211 440.77 397.586 438.65 403.415 434.595L397.705 426.385C393.414 429.37 389.009 430.77 384.39 430.77V440.77ZM403.415 434.595C409.874 430.102 413.15 423.588 413.15 415.64H403.15C403.15 420.452 401.366 423.838 397.705 426.385L403.415 434.595ZM413.15 415.64C413.15 414.494 412.865 412.923 412.551 411.409C412.201 409.718 411.688 407.526 411.021 404.857L401.319 407.283C401.972 409.894 402.449 411.937 402.759 413.436C403.105 415.112 403.15 415.686 403.15 415.64H413.15ZM411.17 406.07V395.51H401.17V406.07H411.17ZM406.17 400.51H444.45V390.51H406.17V400.51ZM440.609 398.711L457.109 418.511L464.791 412.109L448.291 392.309L440.609 398.711ZM455.95 415.31V474.71H465.95V415.31H455.95ZM455.95 474.71C455.95 482.97 458.049 490.347 464.283 494.156L469.497 485.624C467.811 484.593 465.95 481.85 465.95 474.71H455.95ZM462.73 487.116L456.79 496.026L465.11 501.574L471.05 492.664L462.73 487.116ZM460.95 493.8C456.074 493.8 450.722 492.582 444.845 489.947L440.755 499.073C447.638 502.158 454.386 503.8 460.95 503.8V493.8ZM444.906 489.975C439.047 487.255 434.709 484.444 431.7 481.622L424.86 488.918C428.891 492.696 434.233 496.045 440.694 499.045L444.906 489.975ZM424.972 481.521C422.035 484.112 416.475 486.939 407.629 489.744L410.651 499.276C419.845 496.361 427.045 493.028 431.588 489.019L424.972 481.521ZM407.595 489.755C399.212 492.479 391.375 493.8 384.06 493.8V503.8C392.585 503.8 401.468 502.261 410.685 499.265L407.595 489.755ZM384.06 493.8C368.925 493.8 357.06 489.778 348.023 482.116L341.557 489.744C352.76 499.242 367.075 503.8 384.06 503.8V493.8ZM341.344 482.307C333.184 490.069 324.055 493.8 313.77 493.8V503.8C326.805 503.8 338.356 498.951 348.236 489.553L341.344 482.307ZM313.77 493.8C304.175 493.8 294.77 489.158 285.509 478.662L278.011 485.278C288.55 497.222 300.485 503.8 313.77 503.8V493.8ZM285.514 478.667C276.343 468.246 271.274 457.699 269.889 447.007L259.971 448.293C261.666 461.361 267.817 473.694 278.006 485.273L285.514 478.667ZM267.634 451.856L276.874 445.916L271.466 437.504L262.226 443.444L267.634 451.856ZM269.93 444.36C272.392 448.3 276.809 449.35 280.77 449.35V439.35C279.524 439.35 278.829 439.178 278.502 439.048C278.242 438.944 278.32 438.915 278.41 439.06L269.93 444.36ZM280.77 449.35C283.769 449.35 286.628 448.647 289.169 447.08C291.697 445.521 293.633 443.279 295.069 440.623C297.859 435.46 298.97 428.357 298.97 419.93H288.97C288.97 427.783 287.881 432.89 286.271 435.867C285.507 437.281 284.693 438.092 283.921 438.568C283.162 439.036 282.171 439.35 280.77 439.35V449.35ZM293.97 414.93H290.67V424.93H293.97V414.93ZM294.511 416.729L278.011 396.929L270.329 403.331L286.829 423.131L294.511 416.729ZM279.17 400.13V376.04H269.17V400.13H279.17ZM274.17 381.04C283.414 381.04 289.508 381.378 292.771 381.954L294.509 372.106C290.292 371.362 283.406 371.04 274.17 371.04V381.04ZM298.64 377.03V314.33H288.64V377.03H298.64ZM293.64 309.33H291V319.33H293.64V309.33ZM294.841 311.129L278.341 291.329L270.659 297.731L287.159 317.531L294.841 311.129ZM279.5 294.53V248H269.5V294.53H279.5ZM274.5 253H374.82V243H274.5V253ZM370.979 251.201L387.479 271.001L395.161 264.599L378.661 244.799L370.979 251.201ZM386.32 267.8V314.33H396.32V267.8H386.32ZM412.06 416.96C412.06 424.245 409.346 429.657 403.851 433.735L409.809 441.765C417.954 435.723 422.06 427.275 422.06 416.96H412.06ZM403.788 433.782C398.199 438.067 391.178 440.34 382.41 440.34V450.34C393.002 450.34 402.261 447.553 409.872 441.718L403.788 433.782ZM382.41 440.34C373.746 440.34 366.078 437.901 359.246 433.021L353.434 441.159C362.002 447.279 371.714 450.34 382.41 450.34V440.34ZM359.377 433.118C353.404 428.55 350.12 421.606 350.12 411.35H340.12C340.12 423.974 344.316 434.19 353.303 441.062L359.377 433.118ZM350.12 411.35C350.12 408.747 351.122 405.693 353.765 402.106L345.715 396.174C342.198 400.947 340.12 406.033 340.12 411.35H350.12ZM353.74 402.14C355.838 399.342 359.299 397.54 365.25 397.54V387.54C357.121 387.54 350.242 390.138 345.74 396.14L353.74 402.14ZM370.25 392.54V384.62H360.25V392.54H370.25ZM365.25 379.62C361.17 379.62 357.707 379.842 355.029 380.377L356.991 390.183C358.713 389.838 361.41 389.62 365.25 389.62V379.62ZM355.458 380.311C352.087 380.685 348.54 382.71 345.133 385.208L351.047 393.272C354.24 390.93 355.973 390.315 356.562 390.249L355.458 380.311ZM345.316 385.08C341.189 387.832 337.738 391.915 334.839 396.989L343.521 401.951C345.902 397.785 348.391 395.048 350.864 393.4L345.316 385.08ZM340.2 394.575C336.56 393.817 332.438 391.1 327.983 385.228L320.017 391.272C325.242 398.16 331.24 402.923 338.16 404.365L340.2 394.575ZM319.889 385.404C316.493 390.309 312.443 393.28 307.73 394.676L310.57 404.264C317.737 402.14 323.587 397.631 328.111 391.096L319.889 385.404ZM313.401 396.838C310.295 391.821 306.758 387.796 302.684 385.08L297.137 393.4C299.662 395.084 302.285 397.879 304.899 402.102L313.401 396.838ZM302.867 385.208C299.366 382.641 295.722 380.661 292.158 380.305L291.162 390.255C291.998 390.339 293.854 390.999 296.953 393.272L302.867 385.208ZM292.745 380.399C290.214 379.837 286.799 379.62 282.75 379.62V389.62C286.621 389.62 289.146 389.843 290.575 390.161L292.745 380.399ZM277.75 384.62V392.54H287.75V384.62H277.75ZM282.75 397.54C288.91 397.54 292.489 399.604 294.68 403.11L303.16 397.81C298.751 390.756 291.55 387.54 282.75 387.54V397.54ZM294.815 403.315C297.528 407.215 299.2 413.211 299.2 421.91H309.2C309.2 412.129 307.352 403.825 303.025 397.605L294.815 403.315ZM299.2 421.91C299.2 430.638 297.739 437.368 295.141 442.378L304.019 446.982C307.581 440.112 309.2 431.662 309.2 421.91H299.2ZM295.075 442.511C293.395 445.999 289.596 448.59 281.1 448.59V458.59C291.524 458.59 300.045 455.241 304.085 446.849L295.075 442.511ZM281.807 448.64L277.187 447.98L275.773 457.88L280.393 458.54L281.807 448.64ZM271.765 454.594C273.953 460.792 277.116 465.888 281.502 469.439C285.956 473.045 291.309 474.76 297.27 474.76V464.76C293.331 464.76 290.269 463.67 287.793 461.666C285.249 459.607 282.967 456.288 281.195 451.266L271.765 454.594ZM297.27 474.76C308.993 474.76 319.893 468.863 329.925 458.364L322.695 451.456C313.807 460.757 305.347 464.76 297.27 464.76V474.76ZM326.31 459.91H329.28V449.91H326.31V459.91ZM325.744 458.446L327.064 459.766L334.136 452.694L332.816 451.374L325.744 458.446ZM327.399 460.071C338.939 469.688 352.861 474.43 368.88 474.43V464.43C354.979 464.43 343.381 460.372 333.801 452.389L327.399 460.071ZM368.88 474.43C385.292 474.43 400.644 468.812 414.832 457.881L408.728 449.959C396.076 459.708 382.828 464.43 368.88 464.43V474.43ZM408.244 457.456C410.704 459.915 415.264 463.052 421.395 466.774L426.585 458.226C420.396 454.468 416.817 451.885 415.316 450.384L408.244 457.456ZM421.509 466.841C427.775 470.422 433.213 472.864 437.589 473.684L439.431 463.856C436.767 463.356 432.525 461.618 426.471 458.159L421.509 466.841ZM442.226 465.425C442.229 465.428 441.672 464.649 441.209 461.977C440.783 459.513 440.54 456.09 440.54 451.61H430.54C430.54 456.37 430.792 460.427 431.356 463.683C431.883 466.731 432.811 469.912 434.794 472.115L442.226 465.425ZM440.54 451.61V405.41H430.54V451.61H440.54ZM435.54 400.41H415.41V410.41H435.54V400.41ZM410.613 406.821C411.576 410.095 412.06 413.47 412.06 416.96H422.06C422.06 412.53 421.444 408.205 420.207 403.999L410.613 406.821ZM314.362 391.217C317.386 389.403 320.489 386.152 323.657 382.08L315.763 375.94C312.771 379.788 310.594 381.816 309.218 382.643L314.362 391.217ZM319.71 384.01H328.62V374.01H319.71V384.01ZM324.567 381.937C327.529 386.04 330.543 389.361 333.638 391.217L338.782 382.643C337.477 381.859 335.431 379.9 332.673 376.083L324.567 381.937ZM340.142 390.019C342.103 387.522 344.493 385.574 347.356 384.142L342.884 375.198C338.707 377.286 335.157 380.178 332.278 383.841L340.142 390.019ZM350.12 379.67V285.29H340.12V379.67H350.12ZM345.12 290.29H365.58V280.29H345.12V290.29ZM370.58 285.29V257.24H360.58V285.29H370.58ZM365.58 252.24H283.74V262.24H365.58V252.24ZM278.74 257.24V285.29H288.74V257.24H278.74ZM283.74 290.29H303.54V280.29H283.74V290.29ZM298.54 285.29V380H308.54V285.29H298.54ZM301.17 384.402C303.371 385.588 305.658 387.459 307.994 390.184L315.586 383.676C312.642 380.241 309.429 377.492 305.911 375.598L301.17 384.402Z" fill="#3A586E" mask="url(#path-3-outside-2_1_2844)"/>
</g>
<defs>
<filter id="filter0_d_1_2844" x="8.96002" y="80" width="252.2" height="258.8" filterUnits="userSpaceOnUse" color-interpolation-filters="sRGB">
<feFlood flood-opacity="0" result="BackgroundImageFix"/>
<feColorMatrix in="SourceAlpha" type="matrix" values="0 0 0 0 0 0 0 0 0 0 0 0 0 0 0 0 0 0 127 0" result="hardAlpha"/>
<feOffset dy="4"/>
<feGaussianBlur stdDeviation="2"/>
<feComposite in2="hardAlpha" operator="out"/>
<feColorMatrix type="matrix" values="0 0 0 0 0 0 0 0 0 0 0 0 0 0 0 0 0 0 0.25 0"/>
<feBlend mode="normal" in2="BackgroundImageFix" result="effect1_dropShadow_1_2844"/>
<feBlend mode="normal" in="SourceGraphic" in2="effect1_dropShadow_1_2844" result="shape"/>
</filter>
<filter id="filter1_d_1_2844" x="260.93" y="248" width="209.96" height="258.8" filterUnits="userSpaceOnUse" color-interpolation-filters="sRGB">
<feFlood flood-opacity="0" result="BackgroundImageFix"/>
<feColorMatrix in="SourceAlpha" type="matrix" values="0 0 0 0 0 0 0 0 0 0 0 0 0 0 0 0 0 0 127 0" result="hardAlpha"/>
<feOffset dy="4"/>
<feGaussianBlur stdDeviation="2"/>
<feComposite in2="hardAlpha" operator="out"/>
<feColorMatrix type="matrix" values="0 0 0 0 0 0 0 0 0 0 0 0 0 0 0 0 0 0 0.25 0"/>
<feBlend mode="normal" in2="BackgroundImageFix" result="effect1_dropShadow_1_2844"/>
<feBlend mode="normal" in="SourceGraphic" in2="effect1_dropShadow_1_2844" result="shape"/>
</filter>
</defs>
</svg>
